<?xml version="1.0" encoding="UTF-8"?><svg id="Layer_1" xmlns="http://www.w3.org/2000/svg" viewBox="0 0 236.82 64.89"><defs><style>.cls-1{fill:#fff;}.cls-2{fill:#f9e600;}.cls-3{fill:#1182f2;}.cls-4{fill:#f9e6ff;}.cls-5{fill:#1e1e1e;}</style></defs><g><path class="cls-5" d="M105.37,16.02v26.99c0,6.76-4.88,11.11-12.5,11.11s-11.7-4.19-12.88-10.41l7.62-1.56c.59,3.17,2.04,5.42,5.26,5.42,2.74,0,4.35-1.72,4.35-5.37V22.62h-12.34v-6.6h20.5Z"/><path class="cls-5" d="M112.34,39.63c0-8.96,5.26-14.49,13.9-14.49s13.9,5.53,13.9,14.49-5.26,14.49-13.9,14.49-13.9-5.53-13.9-14.49Zm19.59,2.2v-4.4c0-4.08-2.15-6.39-5.69-6.39s-5.69,2.31-5.69,6.39v4.4c0,4.08,2.15,6.39,5.69,6.39s5.69-2.31,5.69-6.39Z"/><path class="cls-5" d="M144.96,48.92l4.45-4.13c2.15,2.36,5.04,3.76,8.75,3.76,3.11,0,5.04-.97,5.04-2.95,0-1.56-1.29-2.04-3.43-2.36l-4.45-.7c-4.94-.75-8.85-2.84-8.85-8.1,0-5.8,4.67-9.28,12.66-9.28,5.42,0,9.23,1.56,11.54,4.24l-3.97,4.51c-1.61-1.77-4.24-3.17-7.83-3.17-3,0-4.61,.97-4.61,2.79,0,1.61,1.29,2.09,3.43,2.41l4.4,.7c4.99,.75,8.91,2.84,8.91,8.1,0,5.74-4.67,9.39-12.88,9.39-6.12,0-10.89-1.99-13.15-5.2Z"/><path class="cls-5" d="M178.01,13.77h7.94V30.83h.32c1.23-3.11,3.7-5.69,8.16-5.69,5.31,0,9.01,3.7,9.01,10.41v17.92h-7.94v-16.85c0-3.49-1.56-5.37-4.67-5.37-2.47,0-4.88,1.34-4.88,4.02v18.19h-7.94V13.77Z"/><path class="cls-5" d="M229.84,36.79l.43-10.46h-.48l-6.98,19.26-6.98-19.26h-.48l.43,10.46v16.69h-6.98V16.02h9.5l4.61,12.61h.43l4.61-12.61h8.85V53.48h-6.98v-16.69Z"/></g><path class="cls-3" d="M6.04,5.74H50.97c5.44,0,9.86,4.42,9.86,9.86V60.53H6.04V5.74h0Z"/><path class="cls-4" d="M60.96,47.34c-.14-1.81-.86-3.16-4.11-3.16-2.05,0-3.88,.54-5.15,1.39-.13,0-.25,0-.38,0s-.25,0-.38,0c-1.26-.85-3.1-1.39-5.15-1.39s-4.04,.58-5.31,1.5c-.51-.07-1.04-.12-1.59-.12-3.81,0-6.9,1.85-6.9,4.14s3.09,4.14,6.9,4.14c1.02,0,1.98-.14,2.85-.37,2.28,1.07,5.72,1.75,9.58,1.75,6.86,0,12.43-2.16,12.43-4.83,0-1.16-1.05-2.22-2.8-3.05Z"/><path class="cls-4" d="M28.97,33.29c-.28-2.13-3.25-3.81-6.88-3.81-1.26,0-2.44,.21-3.45,.56-1.02-.35-2.19-.56-3.45-.56-2.14,0-4.04,.58-5.31,1.5-.51-.07-1.04-.12-1.59-.12-3.81,0-6.9,1.85-6.9,4.14s3.09,4.14,6.9,4.14c.88,0,1.72-.1,2.49-.28,2.27,1.01,5.87,1.66,9.94,1.66,6.86,0,12.43-1.85,12.43-4.14,0-1.23-1.62-2.33-4.17-3.09Z"/><path class="cls-1" d="M0,13.33V51.56c0,7.36,5.97,13.33,13.33,13.33H53.86c7.36,0,13.33-5.97,13.33-13.33V13.33c0-7.36-5.97-13.33-13.33-13.33H13.33C5.97,0,0,5.97,0,13.33ZM47.5,60.53H19.37c-7.36,0-13.33-5.97-13.33-13.33V19.07c0-7.36,5.97-13.33,13.33-13.33h28.12c7.36,0,13.33,5.97,13.33,13.33v28.12c0,7.36-5.97,13.33-13.33,13.33Z"/><circle class="cls-2" cx="46.25" cy="21.4" r="7.59"/></svg>